<?xml version="1.0" encoding="utf-8"?><svg xmlns:xlink="http://www.w3.org/1999/xlink" id="supirpupiranimatorfilip" image-rendering="auto" baseProfile="basic" version="1.1" x="0px" y="0px" width="76" height="76" xmlns="http://www.w3.org/2000/svg"><g id="Scene_1" overflow="visible"><g style="display:none;"><path fill="#FFF" d="M45.151,30.231L39.201,30.231 39.201,51.331 45.151,51.331 45.151,30.231"/><path fill="#FFF" d="M53.201,26.351L47.251,26.351 47.251,51.351 53.201,51.351 53.201,26.351"/><path fill="#FFF" d="M37.001,33.651L31.101,33.651 31.101,51.301 37.001,51.301 37.001,33.651"/><path fill="#FFF" d="M28.651,51.301L28.651,39.901 22.701,39.901 22.701,51.301 28.651,51.301"/><animate attributeName="display" repeatCount="indefinite" dur="4.042s" keyTimes="0;0.567;1" values="none;inline;inline"/></g><g style="display:none;"><path fill="#FFF" d="M53.15,27.25L47.2,27.25 47.2,51.3 53.15,51.3 53.15,27.25"/><path fill="#FFF" d="M28.6,38.8L22.65,38.8 22.65,51.25 28.6,51.25 28.6,38.8"/><path fill="#FFF" d="M36.95,33.6L31.05,33.6 31.05,51.25 36.95,51.25 36.95,33.6"/><path fill="#FFF" d="M45.1,29.85L39.15,29.85 39.15,51.3 45.1,51.3 45.1,29.85"/><animate attributeName="display" repeatCount="indefinite" dur="4.042s" keyTimes="0;0.557;0.567;1" values="none;inline;none;none"/></g><g style="display:none;"><path fill="#FFF" d="M53.15,28.25L47.2,28.25 47.2,51.3 53.15,51.3 53.15,28.25"/><path fill="#FFF" d="M28.6,37.75L22.65,37.75 22.65,51.25 28.6,51.25 28.6,37.75"/><path fill="#FFF" d="M36.95,33.6L31.05,33.6 31.05,51.25 36.95,51.25 36.95,33.6"/><path fill="#FFF" d="M45.1,29.55L39.15,29.55 39.15,51.3 45.1,51.3 45.1,29.55"/><animate attributeName="display" repeatCount="indefinite" dur="4.042s" keyTimes="0;0.546;0.557;1" values="none;inline;none;none"/></g><g style="display:none;"><path fill="#FFF" d="M53.15,29.2L47.2,29.2 47.2,51.3 53.15,51.3 53.15,29.2"/><path fill="#FFF" d="M28.6,36.7L22.65,36.7 22.65,51.25 28.6,51.25 28.6,36.7"/><path fill="#FFF" d="M36.95,33.6L31.05,33.6 31.05,51.25 36.95,51.25 36.95,33.6"/><path fill="#FFF" d="M45.1,29.2L39.15,29.2 39.15,51.3 45.1,51.3 45.1,29.2"/><animate attributeName="display" repeatCount="indefinite" dur="4.042s" keyTimes="0;0.536;0.546;1" values="none;inline;none;none"/></g><g style="display:none;"><path fill="#FFF" d="M53.15,30.15L47.2,30.15 47.2,51.3 53.15,51.3 53.15,30.15"/><path fill="#FFF" d="M28.6,35.65L22.65,35.65 22.65,51.25 28.6,51.25 28.6,35.65"/><path fill="#FFF" d="M36.95,33.6L31.05,33.6 31.05,51.25 36.95,51.25 36.95,33.6"/><path fill="#FFF" d="M45.1,28.85L39.15,28.85 39.15,51.3 45.1,51.3 45.1,28.85"/><animate attributeName="display" repeatCount="indefinite" dur="4.042s" keyTimes="0;0.526;0.536;1" values="none;inline;none;none"/></g><g style="display:none;"><path fill="#FFF" d="M53.15,31.15L47.2,31.15 47.2,51.25 53.15,51.25 53.15,31.15"/><path fill="#FFF" d="M28.6,34.55L22.65,34.55 22.65,51.25 28.6,51.25 28.6,34.55"/><path fill="#FFF" d="M36.95,33.6L31.05,33.6 31.05,51.25 36.95,51.25 36.95,33.6"/><path fill="#FFF" d="M45.1,28.55L39.15,28.55 39.15,51.3 45.1,51.3 45.1,28.55"/><animate attributeName="display" repeatCount="indefinite" dur="4.042s" keyTimes="0;0.515;0.526;1" values="none;inline;none;none"/></g><g style="display:none;"><path fill="#FFF" d="M53.15,32.1L47.2,32.1 47.2,51.25 53.15,51.25 53.15,32.1"/><path fill="#FFF" d="M28.6,33.5L22.65,33.5 22.65,51.25 28.6,51.25 28.6,33.5"/><path fill="#FFF" d="M36.95,33.6L31.05,33.6 31.05,51.25 36.95,51.25 36.95,33.6"/><path fill="#FFF" d="M45.1,28.2L39.15,28.2 39.15,51.3 45.1,51.3 45.1,28.2"/><animate attributeName="display" repeatCount="indefinite" dur="4.042s" keyTimes="0;0.505;0.515;1" values="none;inline;none;none"/></g><g style="display:none;"><path fill="#FFF" d="M53.15,33.05L47.2,33.05 47.2,51.25 53.15,51.25 53.15,33.05"/><path fill="#FFF" d="M28.6,32.45L22.65,32.45 22.65,51.25 28.6,51.25 28.6,32.45"/><path fill="#FFF" d="M36.95,33.6L31.05,33.6 31.05,51.25 36.95,51.25 36.95,33.6"/><path fill="#FFF" d="M45.1,27.85L39.15,27.85 39.15,51.3 45.1,51.3 45.1,27.85"/><animate attributeName="display" repeatCount="indefinite" dur="4.042s" keyTimes="0;0.495;0.505;1" values="none;inline;none;none"/></g><g style="display:none;"><path fill="#FFF" d="M53.15,34.05L47.2,34.05 47.2,51.25 53.15,51.25 53.15,34.05"/><path fill="#FFF" d="M28.6,31.4L22.65,31.4 22.65,51.25 28.6,51.25 28.6,31.4"/><path fill="#FFF" d="M36.95,33.6L31.05,33.6 31.05,51.25 36.95,51.25 36.95,33.6"/><path fill="#FFF" d="M45.1,27.55L39.15,27.55 39.15,51.3 45.1,51.3 45.1,27.55"/><animate attributeName="display" repeatCount="indefinite" dur="4.042s" keyTimes="0;0.485;0.495;1" values="none;inline;none;none"/></g><g style="display:none;"><path fill="#FFF" d="M45.151,27.251L39.201,27.251 39.201,51.351 45.151,51.351 45.151,27.251"/><path fill="#FFF" d="M53.201,35.065L47.251,35.065 47.251,51.32 53.201,51.32 53.201,35.065"/><path fill="#FFF" d="M37.001,33.651L31.101,33.651 31.101,51.301 37.001,51.301 37.001,33.651"/><path fill="#FFF" d="M28.651,30.401L22.701,30.401 22.701,51.301 28.651,51.301 28.651,30.401"/><animate attributeName="display" repeatCount="indefinite" dur="4.042s" keyTimes="0;0.474;0.485;1" values="none;inline;none;none"/></g><g style="display:none;"><path fill="#FFF" d="M53.15,33.1L47.2,33.1 47.2,51.25 53.15,51.25 53.15,33.1"/><path fill="#FFF" d="M28.6,29.95L22.65,29.95 22.65,51.25 28.6,51.25 28.6,29.95"/><path fill="#FFF" d="M36.95,34.2L31.05,34.2 31.05,51.25 36.95,51.25 36.95,34.2"/><path fill="#FFF" d="M45.1,27.6L39.15,27.6 39.15,51.3 45.1,51.3 45.1,27.6"/><animate attributeName="display" repeatCount="indefinite" dur="4.042s" keyTimes="0;0.464;0.474;1" values="none;inline;none;none"/></g><g style="display:none;"><path fill="#FFF" d="M53.15,31.2L47.2,31.2 47.2,51.25 53.15,51.25 53.15,31.2"/><path fill="#FFF" d="M28.6,29.55L22.65,29.55 22.65,51.25 28.6,51.25 28.6,29.55"/><path fill="#FFF" d="M36.95,34.8L31.05,34.8 31.05,51.25 36.95,51.25 36.95,34.8"/><path fill="#FFF" d="M45.1,28L39.15,28 39.15,51.3 45.1,51.3 45.1,28"/><animate attributeName="display" repeatCount="indefinite" dur="4.042s" keyTimes="0;0.454;0.464;1" values="none;inline;none;none"/></g><g style="display:none;"><path fill="#FFF" d="M53.15,29.35L47.25,29.35 47.25,51.3 53.15,51.3 53.15,29.35"/><path fill="#FFF" d="M28.6,29.15L22.7,29.15 22.7,51.25 28.6,51.25 28.6,29.15"/><path fill="#FFF" d="M37,35.4L31.05,35.4 31.05,51.25 37,51.25 37,35.4"/><path fill="#FFF" d="M45.15,28.4L39.2,28.4 39.2,51.3 45.15,51.3 45.15,28.4"/><animate attributeName="display" repeatCount="indefinite" dur="4.042s" keyTimes="0;0.443;0.454;1" values="none;inline;none;none"/></g><g style="display:none;"><path fill="#FFF" d="M53.15,27.45L47.25,27.45 47.25,51.3 53.15,51.3 53.15,27.45"/><path fill="#FFF" d="M28.6,28.7L22.7,28.7 22.7,51.25 28.6,51.25 28.6,28.7"/><path fill="#FFF" d="M37,36L31.05,36 31.05,51.25 37,51.25 37,36"/><path fill="#FFF" d="M45.15,28.75L39.2,28.75 39.2,51.3 45.15,51.3 45.15,28.75"/><animate attributeName="display" repeatCount="indefinite" dur="4.042s" keyTimes="0;0.433;0.443;1" values="none;inline;none;none"/></g><g style="display:none;"><path fill="#FFF" d="M53.15,25.55L47.25,25.55 47.25,51.3 53.15,51.3 53.15,25.55"/><path fill="#FFF" d="M28.6,28.3L22.7,28.3 22.7,51.25 28.6,51.25 28.6,28.3"/><path fill="#FFF" d="M37,36.6L31.05,36.6 31.05,51.25 37,51.25 37,36.6"/><path fill="#FFF" d="M45.15,29.15L39.2,29.15 39.2,51.3 45.15,51.3 45.15,29.15"/><animate attributeName="display" repeatCount="indefinite" dur="4.042s" keyTimes="0;0.423;0.433;1" values="none;inline;none;none"/></g><g style="display:none;"><path fill="#FFF" d="M53.15,23.65L47.25,23.65 47.25,51.3 53.15,51.3 53.15,23.65"/><path fill="#FFF" d="M37,37.2L31.05,37.2 31.05,51.25 37,51.25 37,37.2"/><path fill="#FFF" d="M28.6,27.9L22.7,27.9 22.7,51.25 28.6,51.25 28.6,27.9"/><path fill="#FFF" d="M45.15,29.55L39.2,29.55 39.2,51.3 45.15,51.3 45.15,29.55"/><animate attributeName="display" repeatCount="indefinite" dur="4.042s" keyTimes="0;0.412;0.423;1" values="none;inline;none;none"/></g><g style="display:none;"><path fill="#FFF" d="M53.15,23.4L47.25,23.4 47.25,51.3 53.15,51.3 53.15,23.4"/><path fill="#FFF" d="M28.6,27.65L22.7,27.65 22.7,51.25 28.6,51.25 28.6,27.65"/><path fill="#FFF" d="M37,33.65L31.05,33.65 31.05,51.25 37,51.25 37,33.65"/><path fill="#FFF" d="M45.15,29.25L39.2,29.25 39.2,51.3 45.15,51.3 45.15,29.25"/><animate attributeName="display" repeatCount="indefinite" dur="4.042s" keyTimes="0;0.402;0.412;1" values="none;inline;none;none"/></g><g style="display:none;"><path fill="#FFF" d="M53.15,23.1L47.25,23.1 47.25,51.3 53.15,51.3 53.15,23.1"/><path fill="#FFF" d="M28.6,27.4L22.7,27.4 22.7,51.25 28.6,51.25 28.6,27.4"/><path fill="#FFF" d="M37,30.1L31.05,30.1 31.05,51.25 37,51.25 37,30.1"/><path fill="#FFF" d="M45.15,28.95L39.2,28.95 39.2,51.3 45.15,51.3 45.15,28.95"/><animate attributeName="display" repeatCount="indefinite" dur="4.042s" keyTimes="0;0.392;0.402;1" values="none;inline;none;none"/></g><g style="display:none;"><path fill="#FFF" d="M53.15,22.85L47.25,22.85 47.25,51.3 53.15,51.3 53.15,22.85"/><path fill="#FFF" d="M28.6,27.1L22.7,27.1 22.7,51.25 28.6,51.25 28.6,27.1"/><path fill="#FFF" d="M37,26.5L31.05,26.5 31.05,51.25 37,51.25 37,26.5"/><path fill="#FFF" d="M45.15,28.6L39.2,28.6 39.2,51.3 45.15,51.3 45.15,28.6"/><animate attributeName="display" repeatCount="indefinite" dur="4.042s" keyTimes="0;0.381;0.392;1" values="none;inline;none;none"/></g><g style="display:none;"><path fill="#FFF" d="M45.201,28.351L39.251,28.351 39.251,51.351 45.201,51.351 45.201,28.351"/><path fill="#FFF" d="M53.201,22.601L47.301,22.601 47.301,51.351 53.201,51.351 53.201,22.601"/><path fill="#FFF" d="M31.101,23.019L31.101,51.318 37.051,51.318 37.051,23.019 31.101,23.019"/><path fill="#FFF" d="M28.651,26.901L22.751,26.901 22.751,51.301 28.651,51.301 28.651,26.901"/><animate attributeName="display" repeatCount="indefinite" dur="4.042s" keyTimes="0;0.371;0.381;1" values="none;inline;none;none"/></g><g style="display:none;"><path fill="#FFF" d="M53.15,22.55L47.25,22.55 47.25,51.3 53.15,51.3 53.15,22.55"/><path fill="#FFF" d="M28.6,26.85L22.7,26.85 22.7,51.25 28.6,51.25 28.6,26.85"/><path fill="#FFF" d="M37,24.4L31.05,24.4 31.05,51.25 37,51.25 37,24.4"/><path fill="#FFF" d="M45.15,28.5L39.2,28.5 39.2,51.3 45.15,51.3 45.15,28.5"/><animate attributeName="display" repeatCount="indefinite" dur="4.042s" keyTimes="0;0.361;0.371;1" values="none;inline;none;none"/></g><g style="display:none;"><path fill="#FFF" d="M53.15,22.55L47.25,22.55 47.25,51.3 53.15,51.3 53.15,22.55"/><path fill="#FFF" d="M28.6,26.85L22.7,26.85 22.7,51.25 28.6,51.25 28.6,26.85"/><path fill="#FFF" d="M37,25.8L31.05,25.8 31.05,51.25 37,51.25 37,25.8"/><path fill="#FFF" d="M45.15,28.7L39.2,28.7 39.2,51.3 45.15,51.3 45.15,28.7"/><animate attributeName="display" repeatCount="indefinite" dur="4.042s" keyTimes="0;0.351;0.361;1" values="none;inline;none;none"/></g><g style="display:none;"><path fill="#FFF" d="M53.15,22.55L47.25,22.55 47.25,51.3 53.15,51.3 53.15,22.55"/><path fill="#FFF" d="M28.6,26.85L22.7,26.85 22.7,51.25 28.6,51.25 28.6,26.85"/><path fill="#FFF" d="M37,27.25L31.05,27.25 31.05,51.25 37,51.25 37,27.25"/><path fill="#FFF" d="M45.15,28.9L39.2,28.9 39.2,51.3 45.15,51.3 45.15,28.9"/><animate attributeName="display" repeatCount="indefinite" dur="4.042s" keyTimes="0;0.34;0.351;1" values="none;inline;none;none"/></g><g style="display:none;"><path fill="#FFF" d="M53.15,22.55L47.25,22.55 47.25,51.3 53.15,51.3 53.15,22.55"/><path fill="#FFF" d="M28.6,26.85L22.7,26.85 22.7,51.25 28.6,51.25 28.6,26.85"/><path fill="#FFF" d="M37,28.7L31.05,28.7 31.05,51.25 37,51.25 37,28.7"/><path fill="#FFF" d="M45.15,29.1L39.2,29.1 39.2,51.3 45.15,51.3 45.15,29.1"/><animate attributeName="display" repeatCount="indefinite" dur="4.042s" keyTimes="0;0.33;0.34;1" values="none;inline;none;none"/></g><g style="display:none;"><path fill="#FFF" d="M53.15,22.55L47.25,22.55 47.25,51.3 53.15,51.3 53.15,22.55"/><path fill="#FFF" d="M28.6,26.85L22.7,26.85 22.7,51.25 28.6,51.25 28.6,26.85"/><path fill="#FFF" d="M37,30.1L31.05,30.1 31.05,51.25 37,51.25 37,30.1"/><path fill="#FFF" d="M45.15,29.3L39.2,29.3 39.2,51.3 45.15,51.3 45.15,29.3"/><animate attributeName="display" repeatCount="indefinite" dur="4.042s" keyTimes="0;0.32;0.33;1" values="none;inline;none;none"/></g><g style="display:none;"><path fill="#FFF" d="M53.15,22.55L47.25,22.55 47.25,51.3 53.15,51.3 53.15,22.55"/><path fill="#FFF" d="M28.6,26.85L22.7,26.85 22.7,51.25 28.6,51.25 28.6,26.85"/><path fill="#FFF" d="M37,31.55L31.05,31.55 31.05,51.25 37,51.25 37,31.55"/><path fill="#FFF" d="M45.15,29.55L39.2,29.55 39.2,51.3 45.15,51.3 45.15,29.55"/><animate attributeName="display" repeatCount="indefinite" dur="4.042s" keyTimes="0;0.309;0.32;1" values="none;inline;none;none"/></g><g style="display:none;"><path fill="#FFF" d="M53.15,22.55L47.25,22.55 47.25,51.3 53.15,51.3 53.15,22.55"/><path fill="#FFF" d="M28.6,26.85L22.7,26.85 22.7,51.25 28.6,51.25 28.6,26.85"/><path fill="#FFF" d="M37,32.95L31.05,32.95 31.05,51.25 37,51.25 37,32.95"/><path fill="#FFF" d="M45.15,29.75L39.2,29.75 39.2,51.3 45.15,51.3 45.15,29.75"/><animate attributeName="display" repeatCount="indefinite" dur="4.042s" keyTimes="0;0.299;0.309;1" values="none;inline;none;none"/></g><g style="display:none;"><path fill="#FFF" d="M53.15,22.55L47.25,22.55 47.25,51.3 53.15,51.3 53.15,22.55"/><path fill="#FFF" d="M28.6,26.85L22.7,26.85 22.7,51.25 28.6,51.25 28.6,26.85"/><path fill="#FFF" d="M37,34.4L31.05,34.4 31.05,51.25 37,51.25 37,34.4"/><path fill="#FFF" d="M45.15,29.95L39.2,29.95 39.2,51.3 45.15,51.3 45.15,29.95"/><animate attributeName="display" repeatCount="indefinite" dur="4.042s" keyTimes="0;0.289;0.299;1" values="none;inline;none;none"/></g><g style="display:none;"><path fill="#FFF" d="M53.15,22.55L47.25,22.55 47.25,51.3 53.15,51.3 53.15,22.55"/><path fill="#FFF" d="M28.6,26.85L22.7,26.85 22.7,51.25 28.6,51.25 28.6,26.85"/><path fill="#FFF" d="M37,35.85L31.05,35.85 31.05,51.25 37,51.25 37,35.85"/><path fill="#FFF" d="M45.15,30.15L39.2,30.15 39.2,51.3 45.15,51.3 45.15,30.15"/><animate attributeName="display" repeatCount="indefinite" dur="4.042s" keyTimes="0;0.278;0.289;1" values="none;inline;none;none"/></g><g style="display:none;"><path fill="#FFF" d="M53.15,22.55L47.25,22.55 47.25,51.3 53.15,51.3 53.15,22.55"/><path fill="#FFF" d="M28.6,26.85L22.7,26.85 22.7,51.25 28.6,51.25 28.6,26.85"/><path fill="#FFF" d="M37,37.25L31.05,37.25 31.05,51.25 37,51.25 37,37.25"/><path fill="#FFF" d="M45.15,30.35L39.2,30.35 39.2,51.3 45.15,51.3 45.15,30.35"/><animate attributeName="display" repeatCount="indefinite" dur="4.042s" keyTimes="0;0.268;0.278;1" values="none;inline;none;none"/></g><g style="display:none;"><path fill="#FFF" d="M45.201,30.601L39.251,30.601 39.251,51.351 45.201,51.351 45.201,30.601"/><path fill="#FFF" d="M53.201,22.601L47.301,22.601 47.301,51.351 53.201,51.351 53.201,22.601"/><path fill="#FFF" d="M31.101,38.751L31.101,51.301 37.051,51.301 37.051,38.751 31.101,38.751"/><path fill="#FFF" d="M28.651,26.901L22.751,26.901 22.751,51.301 28.651,51.301 28.651,26.901"/><animate attributeName="display" repeatCount="indefinite" dur="4.042s" keyTimes="0;0.258;0.268;1" values="none;inline;none;none"/></g><g style="display:none;"><path fill="#FFF" d="M53.15,22.9L47.25,22.9 47.25,51.3 53.15,51.3 53.15,22.9"/><path fill="#FFF" d="M28.6,27.75L22.7,27.75 22.7,51.25 28.6,51.25 28.6,27.75"/><path fill="#FFF" d="M37,38.7L31.05,38.7 31.05,51.25 37,51.25 37,38.7"/><path fill="#FFF" d="M45.15,30.3L39.2,30.3 39.2,51.3 45.15,51.3 45.15,30.3"/><animate attributeName="display" repeatCount="indefinite" dur="4.042s" keyTimes="0;0.247;0.258;1" values="none;inline;none;none"/></g><g style="display:none;"><path fill="#FFF" d="M53.15,23.25L47.25,23.25 47.25,51.3 53.15,51.3 53.15,23.25"/><path fill="#FFF" d="M28.6,28.65L22.7,28.65 22.7,51.25 28.6,51.25 28.6,28.65"/><path fill="#FFF" d="M37,38.7L31.05,38.7 31.05,51.25 37,51.25 37,38.7"/><path fill="#FFF" d="M45.15,30.1L39.2,30.1 39.2,51.3 45.15,51.3 45.15,30.1"/><animate attributeName="display" repeatCount="indefinite" dur="4.042s" keyTimes="0;0.237;0.247;1" values="none;inline;none;none"/></g><g style="display:none;"><path fill="#FFF" d="M53.15,23.6L47.25,23.6 47.25,51.3 53.15,51.3 53.15,23.6"/><path fill="#FFF" d="M28.6,29.55L22.7,29.55 22.7,51.25 28.6,51.25 28.6,29.55"/><path fill="#FFF" d="M37,38.7L31.05,38.7 31.05,51.25 37,51.25 37,38.7"/><path fill="#FFF" d="M45.15,29.85L39.2,29.85 39.2,51.3 45.15,51.3 45.15,29.85"/><animate attributeName="display" repeatCount="indefinite" dur="4.042s" keyTimes="0;0.227;0.237;1" values="none;inline;none;none"/></g><g style="display:none;"><path fill="#FFF" d="M53.15,23.9L47.2,23.9 47.2,51.3 53.15,51.3 53.15,23.9"/><path fill="#FFF" d="M28.6,30.45L22.65,30.45 22.65,51.25 28.6,51.25 28.6,30.45"/><path fill="#FFF" d="M36.95,38.65L31.05,38.65 31.05,51.25 36.95,51.25 36.95,38.65"/><path fill="#FFF" d="M45.1,29.6L39.15,29.6 39.15,51.3 45.1,51.3 45.1,29.6"/><animate attributeName="display" repeatCount="indefinite" dur="4.042s" keyTimes="0;0.216;0.227;1" values="none;inline;none;none"/></g><g style="display:none;"><path fill="#FFF" d="M53.15,24.25L47.2,24.25 47.2,51.3 53.15,51.3 53.15,24.25"/><path fill="#FFF" d="M28.6,31.35L22.65,31.35 22.65,51.25 28.6,51.25 28.6,31.35"/><path fill="#FFF" d="M36.95,38.65L31.05,38.65 31.05,51.25 36.95,51.25 36.95,38.65"/><path fill="#FFF" d="M45.1,29.4L39.15,29.4 39.15,51.3 45.1,51.3 45.1,29.4"/><animate attributeName="display" repeatCount="indefinite" dur="4.042s" keyTimes="0;0.206;0.216;1" values="none;inline;none;none"/></g><g style="display:none;"><path fill="#FFF" d="M53.15,24.6L47.2,24.6 47.2,51.3 53.15,51.3 53.15,24.6"/><path fill="#FFF" d="M36.95,38.65L31.05,38.65 31.05,51.25 36.95,51.25 36.95,38.65"/><path fill="#FFF" d="M28.6,32.25L22.65,32.25 22.65,51.25 28.6,51.25 28.6,32.25"/><path fill="#FFF" d="M45.1,29.15L39.15,29.15 39.15,51.3 45.1,51.3 45.1,29.15"/><animate attributeName="display" repeatCount="indefinite" dur="4.042s" keyTimes="0;0.196;0.206;1" values="none;inline;none;none"/></g><g style="display:none;"><path fill="#FFF" d="M53.15,24.95L47.2,24.95 47.2,51.3 53.15,51.3 53.15,24.95"/><path fill="#FFF" d="M28.6,33.75L22.65,33.75 22.65,51.25 28.6,51.25 28.6,33.75"/><path fill="#FFF" d="M36.95,37.65L31.05,37.65 31.05,51.25 36.95,51.25 36.95,37.65"/><path fill="#FFF" d="M45.1,29.35L39.15,29.35 39.15,51.3 45.1,51.3 45.1,29.35"/><animate attributeName="display" repeatCount="indefinite" dur="4.042s" keyTimes="0;0.186;0.196;1" values="none;inline;none;none"/></g><g style="display:none;"><path fill="#FFF" d="M53.15,25.3L47.2,25.3 47.2,51.3 53.15,51.3 53.15,25.3"/><path fill="#FFF" d="M28.6,35.3L22.65,35.3 22.65,51.25 28.6,51.25 28.6,35.3"/><path fill="#FFF" d="M36.95,36.65L31.05,36.65 31.05,51.25 36.95,51.25 36.95,36.65"/><path fill="#FFF" d="M45.1,29.55L39.15,29.55 39.15,51.3 45.1,51.3 45.1,29.55"/><animate attributeName="display" repeatCount="indefinite" dur="4.042s" keyTimes="0;0.175;0.186;1" values="none;inline;none;none"/></g><g style="display:none;"><path fill="#FFF" d="M53.15,25.6L47.2,25.6 47.2,51.3 53.15,51.3 53.15,25.6"/><path fill="#FFF" d="M28.6,36.8L22.65,36.8 22.65,51.25 28.6,51.25 28.6,36.8"/><path fill="#FFF" d="M36.95,35.6L31.05,35.6 31.05,51.25 36.95,51.25 36.95,35.6"/><path fill="#FFF" d="M45.1,29.8L39.15,29.8 39.15,51.3 45.1,51.3 45.1,29.8"/><animate attributeName="display" repeatCount="indefinite" dur="4.042s" keyTimes="0;0.165;0.175;1" values="none;inline;none;none"/></g><g style="display:none;"><path fill="#FFF" d="M53.15,25.95L47.2,25.95 47.2,51.3 53.15,51.3 53.15,25.95"/><path fill="#FFF" d="M28.6,38.35L22.65,38.35 22.65,51.25 28.6,51.25 28.6,38.35"/><path fill="#FFF" d="M36.95,34.6L31.05,34.6 31.05,51.25 36.95,51.25 36.95,34.6"/><path fill="#FFF" d="M45.1,30L39.15,30 39.15,51.3 45.1,51.3 45.1,30"/><animate attributeName="display" repeatCount="indefinite" dur="4.042s" keyTimes="0;0.155;0.165;1" values="none;inline;none;none"/></g><g style="display:none;"><path fill="#FFF" d="M45.151,30.231L39.201,30.231 39.201,51.331 45.151,51.331 45.151,30.231"/><path fill="#FFF" d="M53.201,26.351L47.251,26.351 47.251,51.351 53.201,51.351 53.201,26.351"/><path fill="#FFF" d="M37.001,33.651L31.101,33.651 31.101,51.301 37.001,51.301 37.001,33.651"/><path fill="#FFF" d="M28.6,39.85L22.65,39.85 22.65,51.25 28.6,51.25 28.6,39.85"/><animate attributeName="display" repeatCount="indefinite" dur="4.042s" keyTimes="0;0.144;0.155;1" values="none;inline;none;none"/></g><g><path fill="#FFF" d="M45.151,30.231L39.201,30.231 39.201,51.331 45.151,51.331 45.151,30.231"/><path fill="#FFF" d="M53.201,26.351L47.251,26.351 47.251,51.351 53.201,51.351 53.201,26.351"/><path fill="#FFF" d="M37.001,33.651L31.101,33.651 31.101,51.301 37.001,51.301 37.001,33.651"/><path fill="#FFF" d="M22.701,39.901L22.701,51.301 28.651,51.301 28.651,39.901 22.701,39.901"/><animate attributeName="display" repeatCount="indefinite" dur="4.042s" keyTimes="0;0.144;1" values="inline;none;none"/></g><path fill="#FFF" d="M37.951,0.051Q22.251,0.051 11.151,11.151 0.051,22.301 0.051,38.001 0.051,53.701 11.151,64.801 22.301,75.951 37.951,75.951 53.651,75.951 64.801,64.801 75.901,53.701 75.901,38.001 75.901,22.301 64.801,11.151 53.651,0.051 37.951,0.051 M37.951,5.851Q51.251,5.851 60.701,15.251 70.101,24.701 70.151,38.001 70.101,51.301 60.701,60.751 51.251,70.151 37.951,70.151 24.701,70.151 15.251,60.701 5.801,51.301 5.801,38.001 5.801,24.701 15.251,15.251 24.651,5.851 37.951,5.851"/></g></svg>